<svg version="1.1" xmlns="http://www.w3.org/2000/svg" viewBox="1070 430 450 760">
  <path d="M0 0 C2.67870623 0.13714159 5.35692325 0.27989771 8.03515625 0.42578125 C9.15790955 0.48239929 9.15790955 0.48239929 10.30334473 0.54016113 C42.87222562 2.35003389 71.65195099 18.34503431 93.66015625 41.83984375 C109.78886942 60.41154593 120.63212088 84.22917733 123.12168694 108.76165485 C123.20512816 109.57764541 123.28856938 110.39363596 123.37453913 111.2343535 C124.27456226 120.81882012 124.27148455 130.38275121 124.24050903 140.00102234 C124.24138339 142.05094751 124.24313858 144.10087246 124.24568737 146.15079623 C124.25011971 151.72887374 124.24221445 157.30687317 124.23213124 162.88494074 C124.22343913 168.92079118 124.22642095 174.95663773 124.22793579 180.99249268 C124.22898102 191.43182473 124.22281289 201.8711361 124.21146011 212.31046104 C124.1995943 223.24977424 124.19192183 234.1890774 124.18975449 245.12839699 C124.18961701 245.8105599 124.18947953 246.49272281 124.18933788 247.19555732 C124.18866114 250.66042924 124.1880584 254.12530117 124.18748413 257.5901731 C124.18329203 282.08201348 124.16984177 306.5738408 124.15087891 331.06567383 C124.13248707 354.84757417 124.11833112 378.62947092 124.10986328 402.41137695 C124.1094687 403.5124828 124.1094687 403.5124828 124.10906615 404.63583322 C124.10642894 412.00819658 124.10387733 419.38055997 124.10138843 426.75292338 C124.09631707 441.76902369 124.09067457 456.78512378 124.08468628 471.80122375 C124.08427441 472.83667005 124.08427441 472.83667005 124.08385422 473.89303445 C124.06547717 519.92869516 124.03374783 565.96434826 124 612 C122.57585186 612.00616238 121.15169591 612.01053194 119.72753906 612.01416016 C118.9344635 612.01678864 118.14138794 612.01941711 117.32427979 612.02212524 C97.93961617 611.83759909 78.66284601 605.64528377 62 596 C61.08613525 595.47599609 61.08613525 595.47599609 60.15380859 594.94140625 C51.06677753 589.64488214 43.50379637 583.33276967 36 576 C35.19820312 575.26007812 34.39640625 574.52015625 33.5703125 573.7578125 C20.64129705 561.5445903 11.39016083 544.78571228 5.625 528.0625 C5.28529175 527.10017456 5.28529175 527.10017456 4.9387207 526.1184082 C0.08591214 511.02382101 -0.43522843 495.51296453 -0.36076355 479.81552124 C-0.36207474 477.73346006 -0.36470689 475.65139938 -0.36853105 473.5693413 C-0.37518648 467.89775639 -0.36331203 462.22634393 -0.34819686 456.55478096 C-0.33516883 450.42007106 -0.33963072 444.28536988 -0.34190369 438.15065002 C-0.34347216 427.53830754 -0.3342132 416.92602625 -0.31719017 406.31370163 C-0.2993963 395.19213979 -0.28788372 384.07060017 -0.28463173 372.9490242 C-0.28442551 372.25570178 -0.28421929 371.56237935 -0.28400682 370.84804716 C-0.28299173 367.32654593 -0.28208761 363.80504469 -0.2812262 360.28354342 C-0.27493672 335.38627951 -0.2547576 310.48904452 -0.22631836 285.59179688 C-0.19873413 261.41504062 -0.17749847 237.23829229 -0.16479492 213.06152344 C-0.16440034 212.3153689 -0.16400576 211.56921436 -0.16359923 210.80044907 C-0.15964343 203.30677892 -0.15581602 195.81310871 -0.15208265 188.31943845 C-0.14447545 173.05602699 -0.13601169 157.79261604 -0.12702942 142.52920532 C-0.12661755 141.82752659 -0.12620568 141.12584786 -0.12578133 140.40290614 C-0.09821206 93.60192516 -0.05061764 46.80096114 0 0 Z " fill="#73BDA8" transform="translate(1235,448)"/>
      <path d="M0 0 C1.16528732 0.00401825 2.33057465 0.0080365 3.53117371 0.01217651 C4.85922783 0.01992599 4.85922783 0.01992599 6.21411133 0.02783203 C6.2828564 47.47719049 6.33568016 94.92654365 6.36730732 142.37594213 C6.3710592 147.98443351 6.37494219 153.59292479 6.37890625 159.20141602 C6.37969318 160.31791266 6.38048011 161.4344093 6.38129089 162.58473917 C6.39432619 180.63616038 6.41796966 198.68755277 6.44556972 216.73895691 C6.47367618 235.27690029 6.49029865 253.81482863 6.49637681 272.35279244 C6.5004824 283.78130031 6.51342497 295.20972671 6.53786073 306.63820948 C6.55378268 314.48714113 6.55849714 322.33603097 6.55461546 330.18497757 C6.55270392 334.70575701 6.55552512 339.22639463 6.57172775 343.74714851 C6.71302506 385.2729247 0.49377545 421.96589222 -29.53979492 452.86767578 C-47.24010122 470.4273747 -68.65551237 481.22085376 -92.91088867 486.40283203 C-93.67320801 486.57089355 -94.43552734 486.73895508 -95.22094727 486.91210938 C-100.36750107 487.91285822 -105.38084083 488.11269411 -110.61352539 488.06933594 C-111.3053038 488.06633987 -111.99708221 488.06334381 -112.70982361 488.06025696 C-114.40186201 488.0524949 -116.09388054 488.04058699 -117.78588867 488.02783203 C-117.8546518 440.86730539 -117.90746663 393.70678408 -117.93908466 346.54621713 C-117.94283649 340.97034584 -117.94671949 335.39447466 -117.95068359 329.81860352 C-117.95147053 328.70861272 -117.95225746 327.59862193 -117.95306823 326.45499506 C-117.96609927 308.51485582 -117.98974035 290.57474562 -118.01734706 272.63462356 C-118.04546546 254.20741175 -118.0620785 235.78021508 -118.06815416 217.3529827 C-118.07225728 205.99511215 -118.08518632 194.63732367 -118.10963807 183.27947839 C-118.12557481 175.47631955 -118.13027119 167.67320274 -118.1263928 159.87002883 C-118.12448353 155.37735492 -118.1272759 150.88482378 -118.1435051 146.39217567 C-118.29714326 101.63409612 -118.29714326 101.63409612 -111.59838867 83.15283203 C-111.29650635 82.28972412 -110.99462402 81.42661621 -110.68359375 80.53735352 C-107.80432076 72.58447825 -104.25062536 65.20519132 -99.78588867 58.02783203 C-99.43751953 57.46080566 -99.08915039 56.8937793 -98.73022461 56.30957031 C-89.08720807 40.95330689 -75.39815519 27.24252251 -59.78588867 18.02783203 C-59.15247559 17.65223145 -58.5190625 17.27663086 -57.86645508 16.88964844 C-44.53302471 9.09871691 -30.69962254 3.8222713 -15.47338867 1.15283203 C-14.45353882 0.97228271 -14.45353882 0.97228271 -13.41308594 0.78808594 C-8.92399018 0.09942694 -4.54148478 -0.0203406 0 0 Z " fill="#72BDA8" transform="translate(1498.785888671875,684.97216796875)"/>
      <path d="M0 0 C1.24072266 0.00676758 2.48144531 0.01353516 3.75976562 0.02050781 C4.69498047 0.02920898 5.63019531 0.03791016 6.59375 0.046875 C6.66403372 27.71668949 6.71683266 55.38649047 6.74918652 83.05637646 C6.7646126 95.90586022 6.78562013 108.75528831 6.82006836 121.60473633 C6.85010169 132.81280171 6.86935589 144.02082674 6.87601548 155.22893125 C6.87990426 161.15581183 6.88895332 167.08257703 6.91094017 173.00942039 C6.93152616 178.60475705 6.93753982 184.19993242 6.93307304 189.79530334 C6.93388847 191.83282667 6.93972085 193.87035624 6.95136642 195.90784645 C7.04423286 213.01613846 6.29445385 230.6768478 0.40625 246.921875 C0.10436768 247.78498291 -0.19751465 248.64809082 -0.50854492 249.53735352 C-8.53963049 271.72011358 -22.76597315 290.6739649 -41.40625 305.046875 C-42.2003125 305.70300781 -42.994375 306.35914063 -43.8125 307.03515625 C-62.14602506 321.5105186 -87.50674916 330.24137205 -110.80078125 330.08984375 C-112.0431958 330.08364014 -113.28561035 330.07743652 -114.56567383 330.07104492 C-115.50306396 330.06306885 -116.4404541 330.05509277 -117.40625 330.046875 C-117.47648307 301.93409657 -117.52930806 273.82133139 -117.56168652 245.70848274 C-117.57712325 232.65376977 -117.59815145 219.59911147 -117.63256836 206.54443359 C-117.66256876 195.15950605 -117.68184819 183.77461811 -117.68851548 172.38965213 C-117.69240976 166.3672939 -117.7014947 160.34504895 -117.72344017 154.3227272 C-117.74397375 148.64121906 -117.75005006 142.95986967 -117.74557304 137.27832794 C-117.74639076 135.20568094 -117.75225496 133.133028 -117.76386642 131.06041336 C-117.95793243 94.59677919 -107.32141729 61.67317609 -81.59765625 35.14453125 C-60.34834597 14.05306171 -30.17092676 -0.21448526 0 0 Z " fill="#72BDA8" transform="translate(1206.40625,615.953125)"/>
      <path d="M0 0 C14.58882166 10.23847956 23.71772124 24.05544925 27.30859375 41.53515625 C29.89964845 59.09453466 26.07810863 75.06475454 16.00390625 89.58984375 C6.18822011 102.63124933 -7.96947258 111.47533136 -24.18359375 113.9765625 C-43.09192259 115.7152145 -58.93057531 111.75495463 -74.30859375 100.3515625 C-87.1701647 89.616547 -93.85695584 75.31713572 -96.18359375 58.9765625 C-97.65043225 42.05768552 -92.74312506 26.51012086 -82.9296875 12.8359375 C-62.52140329 -11.23709627 -26.72451394 -16.72506199 0 0 Z " fill="#6EB8AC" transform="translate(1477.18359375,564.0234375)"/>
</svg>